<mxfile host="app.diagrams.net" modified="2023-05-23T01:33:32.496Z" agent="Mozilla/5.0 (Windows NT 10.0; Win64; x64) AppleWebKit/537.36 (KHTML, like Gecko) Chrome/113.0.0.0 Safari/537.36" version="21.1.8" etag="vGlbOXkr2afLNK_v9-9u" type="github">
  <diagram name="Page-1" id="lwsbLP1TCkL26rUB90Tz">
    <mxGraphModel>
      <root>
        <mxCell id="0" />
        <mxCell id="1" parent="0" />
      </root>
    </mxGraphModel>
  </diagram>
</mxfile>
